STARTFONT 2.1
FONT -nil-ariafont-Bold-R-Normal--16-120-96-96-M-100-iso10646-1
SIZE 12 96 96
FONTBOUNDINGBOX 7 14 0 -3
STARTPROPERTIES 17
POINT_SIZE 120
PIXEL_SIZE 16
RESOLUTION_X 96
RESOLUTION_Y 96
FONT_ASCENT 11
FONT_DESCENT 3
AVERAGE_WIDTH 100
SPACING "M"
_GBDFED_INFO "Edited with gbdfed 1.6."
FOUNDRY "nil"
FAMILY_NAME "ariafont"
WEIGHT_NAME "Bold"
SLANT "R"
SETWIDTH_NAME "Normal"
ADD_STYLE_NAME ""
CHARSET_REGISTRY "iso10646"
CHARSET_ENCODING "1"
ENDPROPERTIES
CHARS 191
STARTCHAR MULTIPLICATION SIGN
ENCODING -1
SWIDTH 437 0
DWIDTH 7 0
BBX 5 5 1 2
BITMAP
88
50
20
50
88
ENDCHAR
STARTCHAR <control>
ENCODING 0
SWIDTH 437 0
DWIDTH 7 0
BBX 7 11 0 -2
BITMAP
AA
00
82
00
82
00
82
00
82
00
AA
ENDCHAR
STARTCHAR SPACE
ENCODING 32
SWIDTH 437 0
DWIDTH 7 0
BBX 0 0 0 0
BITMAP
ENDCHAR
STARTCHAR EXCLAMATION MARK
ENCODING 33
SWIDTH 437 0
DWIDTH 7 0
BBX 2 9 3 0
BITMAP
C0
C0
C0
C0
C0
C0
00
C0
C0
ENDCHAR
STARTCHAR QUOTATION MARK
ENCODING 34
SWIDTH 437 0
DWIDTH 7 0
BBX 5 3 1 6
BITMAP
D8
D8
D8
ENDCHAR
STARTCHAR NUMBER SIGN
ENCODING 35
SWIDTH 437 0
DWIDTH 7 0
BBX 6 6 1 0
BITMAP
68
FC
68
68
FC
68
ENDCHAR
STARTCHAR DOLLAR SIGN
ENCODING 36
SWIDTH 437 0
DWIDTH 7 0
BBX 6 9 1 0
BITMAP
30
78
F4
F0
78
34
F4
78
30
ENDCHAR
STARTCHAR PERCENT SIGN
ENCODING 37
SWIDTH 437 0
DWIDTH 7 0
BBX 6 9 1 0
BITMAP
6C
DC
78
18
30
60
78
F4
D8
ENDCHAR
STARTCHAR AMPERSAND
ENCODING 38
SWIDTH 437 0
DWIDTH 7 0
BBX 6 9 1 0
BITMAP
70
D8
D8
70
60
7C
D8
D8
7C
ENDCHAR
STARTCHAR APOSTROPHE
ENCODING 39
SWIDTH 437 0
DWIDTH 7 0
BBX 2 3 3 6
BITMAP
C0
C0
C0
ENDCHAR
STARTCHAR LEFT PARENTHESIS
ENCODING 40
SWIDTH 437 0
DWIDTH 7 0
BBX 4 11 2 -1
BITMAP
30
60
60
C0
C0
C0
C0
C0
60
60
30
ENDCHAR
STARTCHAR RIGHT PARENTHESIS
ENCODING 41
SWIDTH 437 0
DWIDTH 7 0
BBX 4 11 3 -1
BITMAP
C0
60
60
30
30
30
30
30
60
60
C0
ENDCHAR
STARTCHAR ASTERISK
ENCODING 42
SWIDTH 437 0
DWIDTH 7 0
BBX 6 5 1 2
BITMAP
30
FC
78
FC
30
ENDCHAR
STARTCHAR PLUS SIGN
ENCODING 43
SWIDTH 437 0
DWIDTH 7 0
BBX 6 5 1 2
BITMAP
30
30
FC
30
30
ENDCHAR
STARTCHAR COMMA
ENCODING 44
SWIDTH 437 0
DWIDTH 7 0
BBX 3 4 2 -2
BITMAP
E0
E0
60
C0
ENDCHAR
STARTCHAR HYPHEN-MINUS
ENCODING 45
SWIDTH 437 0
DWIDTH 7 0
BBX 6 2 1 3
BITMAP
FC
FC
ENDCHAR
STARTCHAR FULL STOP
ENCODING 46
SWIDTH 437 0
DWIDTH 7 0
BBX 3 2 2 0
BITMAP
E0
E0
ENDCHAR
STARTCHAR SOLIDUS
ENCODING 47
SWIDTH 437 0
DWIDTH 7 0
BBX 6 10 1 -1
BITMAP
0C
0C
18
18
30
30
60
60
C0
C0
ENDCHAR
STARTCHAR DIGIT ZERO
ENCODING 48
SWIDTH 437 0
DWIDTH 7 0
BBX 6 9 1 0
BITMAP
78
CC
CC
DC
FC
EC
CC
CC
78
ENDCHAR
STARTCHAR DIGIT ONE
ENCODING 49
SWIDTH 437 0
DWIDTH 7 0
BBX 6 9 1 0
BITMAP
30
70
F0
30
30
30
30
30
FC
ENDCHAR
STARTCHAR DIGIT TWO
ENCODING 50
SWIDTH 437 0
DWIDTH 7 0
BBX 6 9 1 0
BITMAP
78
CC
CC
0C
38
60
C0
C0
FC
ENDCHAR
STARTCHAR DIGIT THREE
ENCODING 51
SWIDTH 437 0
DWIDTH 7 0
BBX 6 9 1 0
BITMAP
78
CC
CC
0C
38
0C
CC
CC
78
ENDCHAR
STARTCHAR DIGIT FOUR
ENCODING 52
SWIDTH 437 0
DWIDTH 7 0
BBX 6 9 1 0
BITMAP
18
38
78
D8
FC
18
18
18
18
ENDCHAR
STARTCHAR DIGIT FIVE
ENCODING 53
SWIDTH 437 0
DWIDTH 7 0
BBX 6 9 1 0
BITMAP
FC
C0
C0
F8
0C
0C
0C
CC
78
ENDCHAR
STARTCHAR DIGIT SIX
ENCODING 54
SWIDTH 437 0
DWIDTH 7 0
BBX 6 9 1 0
BITMAP
78
CC
C0
F8
CC
CC
CC
CC
78
ENDCHAR
STARTCHAR DIGIT SEVEN
ENCODING 55
SWIDTH 437 0
DWIDTH 7 0
BBX 6 9 1 0
BITMAP
FC
0C
0C
18
18
18
30
30
30
ENDCHAR
STARTCHAR DIGIT EIGHT
ENCODING 56
SWIDTH 437 0
DWIDTH 7 0
BBX 6 9 1 0
BITMAP
78
CC
CC
CC
78
CC
CC
CC
78
ENDCHAR
STARTCHAR DIGIT NINE
ENCODING 57
SWIDTH 437 0
DWIDTH 7 0
BBX 6 9 1 0
BITMAP
78
CC
CC
CC
7C
0C
0C
CC
78
ENDCHAR
STARTCHAR COLON
ENCODING 58
SWIDTH 437 0
DWIDTH 7 0
BBX 3 5 2 0
BITMAP
E0
E0
00
E0
E0
ENDCHAR
STARTCHAR SEMICOLON
ENCODING 59
SWIDTH 437 0
DWIDTH 7 0
BBX 3 7 2 -2
BITMAP
E0
E0
00
E0
E0
60
C0
ENDCHAR
STARTCHAR LESS-THAN SIGN
ENCODING 60
SWIDTH 437 0
DWIDTH 7 0
BBX 6 9 1 -1
BITMAP
0C
18
30
60
C0
60
30
18
0C
ENDCHAR
STARTCHAR EQUALS SIGN
ENCODING 61
SWIDTH 437 0
DWIDTH 7 0
BBX 6 6 1 1
BITMAP
FC
FC
00
00
FC
FC
ENDCHAR
STARTCHAR GREATER-THAN SIGN
ENCODING 62
SWIDTH 437 0
DWIDTH 7 0
BBX 6 9 1 -1
BITMAP
C0
60
30
18
0C
18
30
60
C0
ENDCHAR
STARTCHAR QUESTION MARK
ENCODING 63
SWIDTH 437 0
DWIDTH 7 0
BBX 6 9 1 0
BITMAP
78
CC
CC
0C
38
30
00
30
30
ENDCHAR
STARTCHAR COMMERCIAL AT
ENCODING 64
SWIDTH 437 0
DWIDTH 7 0
BBX 6 9 1 0
BITMAP
78
CC
CC
FC
EC
EC
F8
C0
7C
ENDCHAR
STARTCHAR LATIN CAPITAL LETTER A
ENCODING 65
SWIDTH 437 0
DWIDTH 7 0
BBX 6 9 1 0
BITMAP
78
CC
CC
CC
FC
CC
CC
CC
CC
ENDCHAR
STARTCHAR LATIN CAPITAL LETTER B
ENCODING 66
SWIDTH 437 0
DWIDTH 7 0
BBX 6 9 1 0
BITMAP
F8
CC
CC
CC
F8
CC
CC
CC
F8
ENDCHAR
STARTCHAR LATIN CAPITAL LETTER C
ENCODING 67
SWIDTH 437 0
DWIDTH 7 0
BBX 6 9 1 0
BITMAP
78
CC
CC
C0
C0
C0
CC
CC
78
ENDCHAR
STARTCHAR LATIN CAPITAL LETTER D
ENCODING 68
SWIDTH 437 0
DWIDTH 7 0
BBX 6 9 1 0
BITMAP
F0
D8
CC
CC
CC
CC
CC
D8
F0
ENDCHAR
STARTCHAR LATIN CAPITAL LETTER E
ENCODING 69
SWIDTH 437 0
DWIDTH 7 0
BBX 6 9 1 0
BITMAP
FC
C0
C0
C0
FC
C0
C0
C0
FC
ENDCHAR
STARTCHAR LATIN CAPITAL LETTER F
ENCODING 70
SWIDTH 437 0
DWIDTH 7 0
BBX 6 9 1 0
BITMAP
FC
C0
C0
C0
FC
C0
C0
C0
C0
ENDCHAR
STARTCHAR LATIN CAPITAL LETTER G
ENCODING 71
SWIDTH 437 0
DWIDTH 7 0
BBX 6 9 1 0
BITMAP
78
CC
C0
C0
FC
CC
CC
DC
74
ENDCHAR
STARTCHAR LATIN CAPITAL LETTER H
ENCODING 72
SWIDTH 437 0
DWIDTH 7 0
BBX 6 9 1 0
BITMAP
CC
CC
CC
CC
FC
CC
CC
CC
CC
ENDCHAR
STARTCHAR LATIN CAPITAL LETTER I
ENCODING 73
SWIDTH 437 0
DWIDTH 7 0
BBX 6 9 1 0
BITMAP
FC
30
30
30
30
30
30
30
FC
ENDCHAR
STARTCHAR LATIN CAPITAL LETTER J
ENCODING 74
SWIDTH 437 0
DWIDTH 7 0
BBX 6 9 1 0
BITMAP
0C
0C
0C
0C
0C
0C
CC
CC
78
ENDCHAR
STARTCHAR LATIN CAPITAL LETTER K
ENCODING 75
SWIDTH 437 0
DWIDTH 7 0
BBX 6 9 1 0
BITMAP
CC
D8
F0
E0
C0
E0
F0
D8
CC
ENDCHAR
STARTCHAR LATIN CAPITAL LETTER L
ENCODING 76
SWIDTH 437 0
DWIDTH 7 0
BBX 6 9 1 0
BITMAP
C0
C0
C0
C0
C0
C0
C0
C0
FC
ENDCHAR
STARTCHAR LATIN CAPITAL LETTER M
ENCODING 77
SWIDTH 437 0
DWIDTH 7 0
BBX 6 9 1 0
BITMAP
84
CC
FC
FC
FC
CC
CC
CC
CC
ENDCHAR
STARTCHAR LATIN CAPITAL LETTER N
ENCODING 78
SWIDTH 437 0
DWIDTH 7 0
BBX 6 9 1 0
BITMAP
CC
EC
EC
FC
FC
DC
DC
CC
CC
ENDCHAR
STARTCHAR LATIN CAPITAL LETTER O
ENCODING 79
SWIDTH 437 0
DWIDTH 7 0
BBX 6 9 1 0
BITMAP
78
CC
CC
CC
CC
CC
CC
CC
78
ENDCHAR
STARTCHAR LATIN CAPITAL LETTER P
ENCODING 80
SWIDTH 437 0
DWIDTH 7 0
BBX 6 9 1 0
BITMAP
F8
CC
CC
CC
F8
C0
C0
C0
C0
ENDCHAR
STARTCHAR LATIN CAPITAL LETTER Q
ENCODING 81
SWIDTH 437 0
DWIDTH 7 0
BBX 6 10 1 -1
BITMAP
78
CC
CC
CC
CC
FC
FC
D8
7C
0C
ENDCHAR
STARTCHAR LATIN CAPITAL LETTER R
ENCODING 82
SWIDTH 437 0
DWIDTH 7 0
BBX 6 9 1 0
BITMAP
F8
CC
CC
CC
F8
F0
D8
CC
CC
ENDCHAR
STARTCHAR LATIN CAPITAL LETTER S
ENCODING 83
SWIDTH 437 0
DWIDTH 7 0
BBX 6 9 1 0
BITMAP
78
CC
C0
C0
78
0C
0C
CC
78
ENDCHAR
STARTCHAR LATIN CAPITAL LETTER T
ENCODING 84
SWIDTH 437 0
DWIDTH 7 0
BBX 6 9 1 0
BITMAP
FC
30
30
30
30
30
30
30
30
ENDCHAR
STARTCHAR LATIN CAPITAL LETTER U
ENCODING 85
SWIDTH 437 0
DWIDTH 7 0
BBX 6 9 1 0
BITMAP
CC
CC
CC
CC
CC
CC
CC
CC
78
ENDCHAR
STARTCHAR LATIN CAPITAL LETTER V
ENCODING 86
SWIDTH 437 0
DWIDTH 7 0
BBX 6 9 1 0
BITMAP
CC
CC
CC
FC
78
78
78
30
30
ENDCHAR
STARTCHAR LATIN CAPITAL LETTER W
ENCODING 87
SWIDTH 437 0
DWIDTH 7 0
BBX 6 9 1 0
BITMAP
CC
CC
CC
FC
FC
FC
78
78
78
ENDCHAR
STARTCHAR LATIN CAPITAL LETTER X
ENCODING 88
SWIDTH 437 0
DWIDTH 7 0
BBX 6 9 1 0
BITMAP
CC
CC
CC
78
30
78
CC
CC
CC
ENDCHAR
STARTCHAR LATIN CAPITAL LETTER Y
ENCODING 89
SWIDTH 437 0
DWIDTH 7 0
BBX 6 9 1 0
BITMAP
CC
CC
CC
78
78
30
30
30
30
ENDCHAR
STARTCHAR LATIN CAPITAL LETTER Z
ENCODING 90
SWIDTH 437 0
DWIDTH 7 0
BBX 6 9 1 0
BITMAP
FC
0C
0C
18
30
60
C0
C0
FC
ENDCHAR
STARTCHAR LEFT SQUARE BRACKET
ENCODING 91
SWIDTH 437 0
DWIDTH 7 0
BBX 4 11 2 -1
BITMAP
F0
C0
C0
C0
C0
C0
C0
C0
C0
C0
F0
ENDCHAR
STARTCHAR REVERSE SOLIDUS
ENCODING 92
SWIDTH 437 0
DWIDTH 7 0
BBX 6 10 1 -1
BITMAP
C0
C0
60
60
30
30
18
18
0C
0C
ENDCHAR
STARTCHAR RIGHT SQUARE BRACKET
ENCODING 93
SWIDTH 437 0
DWIDTH 7 0
BBX 4 11 2 -1
BITMAP
F0
30
30
30
30
30
30
30
30
30
F0
ENDCHAR
STARTCHAR CIRCUMFLEX ACCENT
ENCODING 94
SWIDTH 437 0
DWIDTH 7 0
BBX 6 3 1 6
BITMAP
30
78
CC
ENDCHAR
STARTCHAR LOW LINE
ENCODING 95
SWIDTH 437 0
DWIDTH 7 0
BBX 6 1 1 -1
BITMAP
FC
ENDCHAR
STARTCHAR GRAVE ACCENT
ENCODING 96
SWIDTH 437 0
DWIDTH 7 0
BBX 4 3 2 6
BITMAP
C0
60
30
ENDCHAR
STARTCHAR LATIN SMALL LETTER A
ENCODING 97
SWIDTH 437 0
DWIDTH 7 0
BBX 6 6 1 0
BITMAP
78
CC
7C
CC
DC
7C
ENDCHAR
STARTCHAR LATIN SMALL LETTER B
ENCODING 98
SWIDTH 437 0
DWIDTH 7 0
BBX 6 9 1 0
BITMAP
C0
C0
C0
F8
CC
CC
CC
CC
78
ENDCHAR
STARTCHAR LATIN SMALL LETTER C
ENCODING 99
SWIDTH 437 0
DWIDTH 7 0
BBX 6 6 1 0
BITMAP
78
CC
C0
C0
CC
78
ENDCHAR
STARTCHAR LATIN SMALL LETTER D
ENCODING 100
SWIDTH 437 0
DWIDTH 7 0
BBX 6 9 1 0
BITMAP
0C
0C
0C
7C
CC
CC
CC
CC
78
ENDCHAR
STARTCHAR LATIN SMALL LETTER E
ENCODING 101
SWIDTH 437 0
DWIDTH 7 0
BBX 6 6 1 0
BITMAP
78
CC
FC
C0
CC
78
ENDCHAR
STARTCHAR LATIN SMALL LETTER F
ENCODING 102
SWIDTH 437 0
DWIDTH 7 0
BBX 6 9 1 0
BITMAP
38
6C
60
F8
60
60
60
60
60
ENDCHAR
STARTCHAR LATIN SMALL LETTER G
ENCODING 103
SWIDTH 437 0
DWIDTH 7 0
BBX 6 9 1 -3
BITMAP
7C
CC
CC
CC
DC
7C
0C
CC
78
ENDCHAR
STARTCHAR LATIN SMALL LETTER H
ENCODING 104
SWIDTH 437 0
DWIDTH 7 0
BBX 6 9 1 0
BITMAP
C0
C0
C0
F8
EC
CC
CC
CC
CC
ENDCHAR
STARTCHAR LATIN SMALL LETTER I
ENCODING 105
SWIDTH 437 0
DWIDTH 7 0
BBX 6 9 1 0
BITMAP
30
30
00
F0
30
30
30
30
FC
ENDCHAR
STARTCHAR LATIN SMALL LETTER J
ENCODING 106
SWIDTH 437 0
DWIDTH 7 0
BBX 5 11 1 -2
BITMAP
18
18
00
78
18
18
18
18
18
D8
70
ENDCHAR
STARTCHAR LATIN SMALL LETTER K
ENCODING 107
SWIDTH 437 0
DWIDTH 7 0
BBX 6 9 1 0
BITMAP
C0
C0
C0
CC
D8
F0
F0
D8
CC
ENDCHAR
STARTCHAR LATIN SMALL LETTER L
ENCODING 108
SWIDTH 437 0
DWIDTH 7 0
BBX 6 9 1 0
BITMAP
F0
30
30
30
30
30
30
30
1C
ENDCHAR
STARTCHAR LATIN SMALL LETTER M
ENCODING 109
SWIDTH 437 0
DWIDTH 7 0
BBX 6 6 1 0
BITMAP
F8
FC
D4
D4
D4
D4
ENDCHAR
STARTCHAR LATIN SMALL LETTER N
ENCODING 110
SWIDTH 437 0
DWIDTH 7 0
BBX 6 6 1 0
BITMAP
B8
EC
CC
CC
CC
CC
ENDCHAR
STARTCHAR LATIN SMALL LETTER O
ENCODING 111
SWIDTH 437 0
DWIDTH 7 0
BBX 6 6 1 0
BITMAP
78
CC
CC
CC
CC
78
ENDCHAR
STARTCHAR LATIN SMALL LETTER P
ENCODING 112
SWIDTH 437 0
DWIDTH 7 0
BBX 6 9 1 -3
BITMAP
78
CC
CC
CC
CC
F8
C0
C0
C0
ENDCHAR
STARTCHAR LATIN SMALL LETTER Q
ENCODING 113
SWIDTH 437 0
DWIDTH 7 0
BBX 6 9 1 -3
BITMAP
78
CC
CC
CC
CC
7C
0C
0C
0C
ENDCHAR
STARTCHAR LATIN SMALL LETTER R
ENCODING 114
SWIDTH 437 0
DWIDTH 7 0
BBX 6 6 1 0
BITMAP
F8
EC
C4
C0
C0
C0
ENDCHAR
STARTCHAR LATIN SMALL LETTER S
ENCODING 115
SWIDTH 437 0
DWIDTH 7 0
BBX 6 6 1 0
BITMAP
78
CC
78
0C
CC
78
ENDCHAR
STARTCHAR LATIN SMALL LETTER T
ENCODING 116
SWIDTH 437 0
DWIDTH 7 0
BBX 6 9 1 0
BITMAP
60
60
60
F8
60
60
60
6C
38
ENDCHAR
STARTCHAR LATIN SMALL LETTER U
ENCODING 117
SWIDTH 437 0
DWIDTH 7 0
BBX 6 6 1 0
BITMAP
CC
CC
CC
CC
DC
74
ENDCHAR
STARTCHAR LATIN SMALL LETTER V
ENCODING 118
SWIDTH 437 0
DWIDTH 7 0
BBX 6 6 1 0
BITMAP
CC
CC
78
78
30
30
ENDCHAR
STARTCHAR LATIN SMALL LETTER W
ENCODING 119
SWIDTH 437 0
DWIDTH 7 0
BBX 6 6 1 0
BITMAP
CC
CC
FC
FC
78
78
ENDCHAR
STARTCHAR LATIN SMALL LETTER X
ENCODING 120
SWIDTH 437 0
DWIDTH 7 0
BBX 6 6 1 0
BITMAP
CC
78
30
30
78
CC
ENDCHAR
STARTCHAR LATIN SMALL LETTER Y
ENCODING 121
SWIDTH 437 0
DWIDTH 7 0
BBX 6 9 1 -3
BITMAP
CC
CC
CC
CC
DC
7C
0C
CC
78
ENDCHAR
STARTCHAR LATIN SMALL LETTER Z
ENCODING 122
SWIDTH 437 0
DWIDTH 7 0
BBX 6 6 1 0
BITMAP
FC
18
30
60
C0
FC
ENDCHAR
STARTCHAR LEFT CURLY BRACKET
ENCODING 123
SWIDTH 437 0
DWIDTH 7 0
BBX 6 11 1 -1
BITMAP
1C
30
30
30
18
F0
18
30
30
30
1C
ENDCHAR
STARTCHAR VERTICAL LINE
ENCODING 124
SWIDTH 437 0
DWIDTH 7 0
BBX 2 10 3 -1
BITMAP
C0
C0
C0
C0
C0
C0
C0
C0
C0
C0
ENDCHAR
STARTCHAR RIGHT CURLY BRACKET
ENCODING 125
SWIDTH 437 0
DWIDTH 7 0
BBX 6 11 1 -1
BITMAP
E0
30
30
30
60
3C
60
30
30
30
E0
ENDCHAR
STARTCHAR TILDE
ENCODING 126
SWIDTH 437 0
DWIDTH 7 0
BBX 6 3 1 2
BITMAP
60
FC
18
ENDCHAR
STARTCHAR INVERTED EXCLAMATION MARK
ENCODING 161
SWIDTH 437 0
DWIDTH 7 0
BBX 5 9 0 0
BITMAP
18
18
00
18
18
18
18
18
18
ENDCHAR
STARTCHAR CENT SIGN
ENCODING 162
SWIDTH 437 0
DWIDTH 7 0
BBX 6 8 1 -1
BITMAP
30
78
E4
E0
E0
E4
78
30
ENDCHAR
STARTCHAR POUND SIGN
ENCODING 163
SWIDTH 437 0
DWIDTH 7 0
BBX 7 9 0 0
BITMAP
1C
36
30
30
7C
30
30
76
DC
ENDCHAR
STARTCHAR CURRENCY SIGN
ENCODING 164
SWIDTH 437 0
DWIDTH 7 0
BBX 6 7 1 1
BITMAP
CC
78
78
48
78
78
CC
ENDCHAR
STARTCHAR YEN SIGN
ENCODING 165
SWIDTH 437 0
DWIDTH 7 0
BBX 6 9 1 0
BITMAP
CC
CC
CC
78
FC
30
FC
30
30
ENDCHAR
STARTCHAR BROKEN BAR
ENCODING 166
SWIDTH 437 0
DWIDTH 7 0
BBX 5 10 0 -1
BITMAP
18
18
18
18
00
00
18
18
18
18
ENDCHAR
STARTCHAR SECTION SIGN
ENCODING 167
SWIDTH 437 0
DWIDTH 7 0
BBX 6 10 1 -1
BITMAP
78
CC
60
F0
D8
6C
3C
D8
CC
78
ENDCHAR
STARTCHAR DIAERESIS
ENCODING 168
SWIDTH 437 0
DWIDTH 7 0
BBX 6 1 1 7
BITMAP
CC
ENDCHAR
STARTCHAR COPYRIGHT SIGN
ENCODING 169
SWIDTH 437 0
DWIDTH 7 0
BBX 7 9 0 0
BITMAP
7C
C6
DE
F6
F6
F6
DE
C6
7C
ENDCHAR
STARTCHAR FEMININE ORDINAL INDICATOR
ENCODING 170
SWIDTH 437 0
DWIDTH 7 0
BBX 5 7 2 2
BITMAP
70
D8
78
D8
78
00
F8
ENDCHAR
STARTCHAR LEFT-POINTING DOUBLE ANGLE QUOTATION MARK
ENCODING 171
SWIDTH 437 0
DWIDTH 7 0
BBX 7 5 0 2
BITMAP
26
6C
D8
6C
36
ENDCHAR
STARTCHAR NOT SIGN
ENCODING 172
SWIDTH 437 0
DWIDTH 7 0
BBX 6 3 1 4
BITMAP
FC
0C
0C
ENDCHAR
STARTCHAR REGISTERED SIGN
ENCODING 174
SWIDTH 437 0
DWIDTH 7 0
BBX 7 9 0 0
BITMAP
7C
C6
F6
EE
EE
F6
EE
C6
7C
ENDCHAR
STARTCHAR MACRON
ENCODING 175
SWIDTH 437 0
DWIDTH 7 0
BBX 6 1 1 8
BITMAP
FC
ENDCHAR
STARTCHAR DEGREE SIGN
ENCODING 176
SWIDTH 437 0
DWIDTH 7 0
BBX 6 5 1 5
BITMAP
78
CC
CC
CC
78
ENDCHAR
STARTCHAR PLUS-MINUS SIGN
ENCODING 177
SWIDTH 437 0
DWIDTH 7 0
BBX 6 7 1 0
BITMAP
30
30
FC
30
30
00
FC
ENDCHAR
STARTCHAR SUPERSCRIPT TWO
ENCODING 178
SWIDTH 437 0
DWIDTH 7 0
BBX 4 5 2 4
BITMAP
E0
30
60
C0
F0
ENDCHAR
STARTCHAR SUPERSCRIPT THREE
ENCODING 179
SWIDTH 437 0
DWIDTH 7 0
BBX 4 5 2 4
BITMAP
E0
30
60
30
E0
ENDCHAR
STARTCHAR ACUTE ACCENT
ENCODING 180
SWIDTH 437 0
DWIDTH 7 0
BBX 4 3 2 6
BITMAP
30
60
C0
ENDCHAR
STARTCHAR MICRO SIGN
ENCODING 181
SWIDTH 437 0
DWIDTH 7 0
BBX 6 8 1 -2
BITMAP
D8
D8
D8
D8
D8
FC
C0
C0
ENDCHAR
STARTCHAR PILCROW SIGN
ENCODING 182
SWIDTH 437 0
DWIDTH 7 0
BBX 6 10 1 -1
BITMAP
7C
F4
F4
F4
74
34
34
34
34
3C
ENDCHAR
STARTCHAR MIDDLE DOT
ENCODING 183
SWIDTH 437 0
DWIDTH 7 0
BBX 3 2 2 3
BITMAP
E0
E0
ENDCHAR
STARTCHAR CEDILLA
ENCODING 184
SWIDTH 437 0
DWIDTH 7 0
BBX 5 3 0 -2
BITMAP
30
18
30
ENDCHAR
STARTCHAR SUPERSCRIPT ONE
ENCODING 185
SWIDTH 437 0
DWIDTH 7 0
BBX 4 5 2 4
BITMAP
60
E0
60
60
F0
ENDCHAR
STARTCHAR MASCULINE ORDINAL INDICATOR
ENCODING 186
SWIDTH 437 0
DWIDTH 7 0
BBX 6 7 1 3
BITMAP
78
CC
CC
CC
78
00
FC
ENDCHAR
STARTCHAR RIGHT-POINTING DOUBLE ANGLE QUOTATION MARK
ENCODING 187
SWIDTH 437 0
DWIDTH 7 0
BBX 7 5 0 2
BITMAP
D8
6C
36
6C
D8
ENDCHAR
STARTCHAR VULGAR FRACTION ONE QUARTER
ENCODING 188
SWIDTH 437 0
DWIDTH 7 0
BBX 7 10 0 -1
BITMAP
06
66
EC
6C
78
1E
3A
32
7E
66
ENDCHAR
STARTCHAR VULGAR FRACTION ONE HALF
ENCODING 189
SWIDTH 437 0
DWIDTH 7 0
BBX 7 10 0 -1
BITMAP
06
66
EC
6C
78
1C
36
3C
78
7E
ENDCHAR
STARTCHAR VULGAR FRACTION THREE QUARTERS
ENCODING 190
SWIDTH 437 0
DWIDTH 7 0
BBX 7 10 0 -1
BITMAP
E6
36
7C
3C
F8
1E
3A
32
7E
66
ENDCHAR
STARTCHAR INVERTED QUESTION MARK
ENCODING 191
SWIDTH 437 0
DWIDTH 7 0
BBX 6 9 1 0
BITMAP
30
30
00
30
70
C0
CC
CC
78
ENDCHAR
STARTCHAR LATIN CAPITAL LETTER A WITH GRAVE
ENCODING 192
SWIDTH 437 0
DWIDTH 7 0
BBX 6 11 1 0
BITMAP
60
30
78
CC
CC
CC
FC
CC
CC
CC
CC
ENDCHAR
STARTCHAR LATIN CAPITAL LETTER A WITH ACUTE
ENCODING 193
SWIDTH 437 0
DWIDTH 7 0
BBX 6 11 1 0
BITMAP
18
30
78
CC
CC
CC
FC
CC
CC
CC
CC
ENDCHAR
STARTCHAR LATIN CAPITAL LETTER A WITH CIRCUMFLEX
ENCODING 194
SWIDTH 437 0
DWIDTH 7 0
BBX 6 11 1 0
BITMAP
30
48
48
FC
CC
CC
FC
CC
CC
CC
CC
ENDCHAR
STARTCHAR LATIN CAPITAL LETTER A WITH TILDE
ENCODING 195
SWIDTH 437 0
DWIDTH 7 0
BBX 6 11 1 0
BITMAP
64
98
78
CC
CC
CC
FC
CC
CC
CC
CC
ENDCHAR
STARTCHAR LATIN CAPITAL LETTER A WITH DIAERESIS
ENCODING 196
SWIDTH 437 0
DWIDTH 7 0
BBX 6 11 1 0
BITMAP
48
00
78
CC
CC
CC
FC
CC
CC
CC
CC
ENDCHAR
STARTCHAR LATIN CAPITAL LETTER A WITH RING ABOVE
ENCODING 197
SWIDTH 437 0
DWIDTH 7 0
BBX 6 11 1 0
BITMAP
30
48
78
FC
CC
CC
FC
CC
CC
CC
CC
ENDCHAR
STARTCHAR LATIN CAPITAL LETTER AE
ENCODING 198
SWIDTH 437 0
DWIDTH 7 0
BBX 6 9 1 0
BITMAP
7C
D8
D8
D8
FC
D8
D8
D8
DC
ENDCHAR
STARTCHAR LATIN CAPITAL LETTER C WITH CEDILLA
ENCODING 199
SWIDTH 437 0
DWIDTH 7 0
BBX 6 11 1 -2
BITMAP
78
CC
C0
C0
C0
C0
C0
CC
78
30
60
ENDCHAR
STARTCHAR LATIN CAPITAL LETTER E WITH GRAVE
ENCODING 200
SWIDTH 437 0
DWIDTH 7 0
BBX 6 11 1 0
BITMAP
60
30
FC
C0
C0
C0
FC
C0
C0
C0
FC
ENDCHAR
STARTCHAR LATIN CAPITAL LETTER E WITH ACUTE
ENCODING 201
SWIDTH 437 0
DWIDTH 7 0
BBX 6 11 1 0
BITMAP
18
30
FC
C0
C0
C0
FC
C0
C0
C0
FC
ENDCHAR
STARTCHAR LATIN CAPITAL LETTER E WITH CIRCUMFLEX
ENCODING 202
SWIDTH 437 0
DWIDTH 7 0
BBX 6 11 1 0
BITMAP
30
78
FC
C0
C0
C0
FC
C0
C0
C0
FC
ENDCHAR
STARTCHAR LATIN CAPITAL LETTER E WITH DIAERESIS
ENCODING 203
SWIDTH 437 0
DWIDTH 7 0
BBX 6 11 1 0
BITMAP
48
00
FC
C0
C0
C0
FC
C0
C0
C0
FC
ENDCHAR
STARTCHAR LATIN CAPITAL LETTER I WITH GRAVE
ENCODING 204
SWIDTH 437 0
DWIDTH 7 0
BBX 6 11 1 0
BITMAP
60
30
FC
30
30
30
30
30
30
30
FC
ENDCHAR
STARTCHAR LATIN CAPITAL LETTER I WITH ACUTE
ENCODING 205
SWIDTH 437 0
DWIDTH 7 0
BBX 6 11 1 0
BITMAP
18
30
FC
30
30
30
30
30
30
30
FC
ENDCHAR
STARTCHAR LATIN CAPITAL LETTER I WITH CIRCUMFLEX
ENCODING 206
SWIDTH 437 0
DWIDTH 7 0
BBX 6 11 1 0
BITMAP
30
48
FC
30
30
30
30
30
30
30
FC
ENDCHAR
STARTCHAR LATIN CAPITAL LETTER I WITH DIAERESIS
ENCODING 207
SWIDTH 437 0
DWIDTH 7 0
BBX 6 11 1 0
BITMAP
48
00
FC
30
30
30
30
30
30
30
FC
ENDCHAR
STARTCHAR LATIN CAPITAL LETTER ETH
ENCODING 208
SWIDTH 437 0
DWIDTH 7 0
BBX 7 9 0 0
BITMAP
78
6C
66
66
FE
66
66
6C
78
ENDCHAR
STARTCHAR LATIN CAPITAL LETTER N WITH TILDE
ENCODING 209
SWIDTH 437 0
DWIDTH 7 0
BBX 6 11 1 0
BITMAP
64
98
CC
EC
EC
FC
FC
DC
DC
CC
CC
ENDCHAR
STARTCHAR LATIN CAPITAL LETTER O WITH GRAVE
ENCODING 210
SWIDTH 437 0
DWIDTH 7 0
BBX 6 11 1 0
BITMAP
60
30
78
CC
CC
CC
CC
CC
CC
CC
78
ENDCHAR
STARTCHAR LATIN CAPITAL LETTER O WITH ACUTE
ENCODING 211
SWIDTH 437 0
DWIDTH 7 0
BBX 6 11 1 0
BITMAP
18
30
78
CC
CC
CC
CC
CC
CC
CC
78
ENDCHAR
STARTCHAR LATIN CAPITAL LETTER O WITH CIRCUMFLEX
ENCODING 212
SWIDTH 437 0
DWIDTH 7 0
BBX 6 11 1 0
BITMAP
30
48
78
CC
CC
CC
CC
CC
CC
CC
78
ENDCHAR
STARTCHAR LATIN CAPITAL LETTER O WITH TILDE
ENCODING 213
SWIDTH 437 0
DWIDTH 7 0
BBX 6 11 1 0
BITMAP
64
98
78
CC
CC
CC
CC
CC
CC
CC
78
ENDCHAR
STARTCHAR LATIN CAPITAL LETTER O WITH DIAERESIS
ENCODING 214
SWIDTH 437 0
DWIDTH 7 0
BBX 6 11 1 0
BITMAP
48
00
78
CC
CC
CC
CC
CC
CC
CC
78
ENDCHAR
STARTCHAR MULTIPLICATION SIGN
ENCODING 215
SWIDTH 437 0
DWIDTH 7 0
BBX 6 5 1 2
BITMAP
CC
78
30
78
CC
ENDCHAR
STARTCHAR LATIN CAPITAL LETTER O WITH STROKE
ENCODING 216
SWIDTH 437 0
DWIDTH 7 0
BBX 6 9 1 0
BITMAP
7C
DC
DC
FC
FC
FC
EC
EC
F8
ENDCHAR
STARTCHAR LATIN CAPITAL LETTER U WITH GRAVE
ENCODING 217
SWIDTH 437 0
DWIDTH 7 0
BBX 6 11 1 0
BITMAP
60
30
00
CC
CC
CC
CC
CC
CC
CC
78
ENDCHAR
STARTCHAR LATIN CAPITAL LETTER U WITH ACUTE
ENCODING 218
SWIDTH 437 0
DWIDTH 7 0
BBX 6 11 1 0
BITMAP
18
30
00
CC
CC
CC
CC
CC
CC
CC
78
ENDCHAR
STARTCHAR LATIN CAPITAL LETTER U WITH CIRCUMFLEX
ENCODING 219
SWIDTH 437 0
DWIDTH 7 0
BBX 6 11 1 0
BITMAP
30
78
00
CC
CC
CC
CC
CC
CC
CC
78
ENDCHAR
STARTCHAR LATIN CAPITAL LETTER U WITH DIAERESIS
ENCODING 220
SWIDTH 437 0
DWIDTH 7 0
BBX 6 10 1 0
BITMAP
48
00
CC
CC
CC
CC
CC
CC
CC
78
ENDCHAR
STARTCHAR LATIN CAPITAL LETTER Y WITH ACUTE
ENCODING 221
SWIDTH 437 0
DWIDTH 7 0
BBX 6 11 1 0
BITMAP
18
30
00
CC
CC
CC
78
78
30
30
30
ENDCHAR
STARTCHAR LATIN CAPITAL LETTER THORN
ENCODING 222
SWIDTH 437 0
DWIDTH 7 0
BBX 7 9 0 0
BITMAP
FC
30
3E
32
32
32
3E
30
FC
ENDCHAR
STARTCHAR LATIN SMALL LETTER SHARP S
ENCODING 223
SWIDTH 437 0
DWIDTH 7 0
BBX 6 9 1 0
BITMAP
78
CC
CC
DC
F8
CC
CC
EC
F8
ENDCHAR
STARTCHAR LATIN SMALL LETTER A WITH GRAVE
ENCODING 224
SWIDTH 437 0
DWIDTH 7 0
BBX 6 9 1 0
BITMAP
60
30
00
78
CC
7C
CC
DC
7C
ENDCHAR
STARTCHAR LATIN SMALL LETTER A WITH ACUTE
ENCODING 225
SWIDTH 437 0
DWIDTH 7 0
BBX 6 9 1 0
BITMAP
18
30
00
78
CC
7C
CC
DC
7C
ENDCHAR
STARTCHAR LATIN SMALL LETTER A WITH CIRCUMFLEX
ENCODING 226
SWIDTH 437 0
DWIDTH 7 0
BBX 6 9 1 0
BITMAP
30
78
00
78
CC
7C
CC
DC
7C
ENDCHAR
STARTCHAR LATIN SMALL LETTER A WITH TILDE
ENCODING 227
SWIDTH 437 0
DWIDTH 7 0
BBX 6 9 1 0
BITMAP
64
98
00
78
CC
7C
CC
DC
7C
ENDCHAR
STARTCHAR LATIN SMALL LETTER A WITH DIAERESIS
ENCODING 228
SWIDTH 437 0
DWIDTH 7 0
BBX 6 9 1 0
BITMAP
30
78
30
78
CC
7C
CC
DC
7C
ENDCHAR
STARTCHAR LATIN SMALL LETTER A WITH RING ABOVE
ENCODING 229
SWIDTH 437 0
DWIDTH 7 0
BBX 6 6 1 0
BITMAP
78
CC
7C
CC
DC
7C
ENDCHAR
STARTCHAR LATIN SMALL LETTER AE
ENCODING 230
SWIDTH 437 0
DWIDTH 7 0
BBX 6 6 1 0
BITMAP
78
FC
7C
F0
FC
78
ENDCHAR
STARTCHAR LATIN SMALL LETTER C WITH CEDILLA
ENCODING 231
SWIDTH 437 0
DWIDTH 7 0
BBX 6 8 1 -2
BITMAP
78
CC
C0
C0
CC
78
60
C0
ENDCHAR
STARTCHAR LATIN SMALL LETTER E WITH GRAVE
ENCODING 232
SWIDTH 437 0
DWIDTH 7 0
BBX 6 9 1 0
BITMAP
60
30
00
78
CC
FC
C0
CC
78
ENDCHAR
STARTCHAR LATIN SMALL LETTER E WITH ACUTE
ENCODING 233
SWIDTH 437 0
DWIDTH 7 0
BBX 6 9 1 0
BITMAP
18
30
00
78
CC
FC
C0
CC
78
ENDCHAR
STARTCHAR LATIN SMALL LETTER E WITH CIRCUMFLEX
ENCODING 234
SWIDTH 437 0
DWIDTH 7 0
BBX 6 9 1 0
BITMAP
30
78
00
78
CC
FC
C0
CC
78
ENDCHAR
STARTCHAR LATIN SMALL LETTER E WITH DIAERESIS
ENCODING 235
SWIDTH 437 0
DWIDTH 7 0
BBX 6 8 1 0
BITMAP
48
00
78
CC
FC
C0
CC
78
ENDCHAR
STARTCHAR LATIN SMALL LETTER I WITH GRAVE
ENCODING 236
SWIDTH 437 0
DWIDTH 7 0
BBX 6 9 1 0
BITMAP
60
30
00
F0
30
30
30
30
FC
ENDCHAR
STARTCHAR LATIN SMALL LETTER I WITH ACUTE
ENCODING 237
SWIDTH 437 0
DWIDTH 7 0
BBX 6 9 1 0
BITMAP
18
30
00
F0
30
30
30
30
FC
ENDCHAR
STARTCHAR LATIN SMALL LETTER I WITH CIRCUMFLEX
ENCODING 238
SWIDTH 437 0
DWIDTH 7 0
BBX 6 9 1 0
BITMAP
30
48
00
F0
30
30
30
30
FC
ENDCHAR
STARTCHAR LATIN SMALL LETTER I WITH DIAERESIS
ENCODING 239
SWIDTH 437 0
DWIDTH 7 0
BBX 6 8 1 0
BITMAP
48
00
F0
30
30
30
30
FC
ENDCHAR
STARTCHAR LATIN SMALL LETTER ETH
ENCODING 240
SWIDTH 437 0
DWIDTH 7 0
BBX 6 10 1 0
BITMAP
78
30
78
0C
7C
CC
CC
CC
CC
78
ENDCHAR
STARTCHAR LATIN SMALL LETTER N WITH TILDE
ENCODING 241
SWIDTH 437 0
DWIDTH 7 0
BBX 6 9 1 0
BITMAP
64
98
00
B8
EC
CC
CC
CC
CC
ENDCHAR
STARTCHAR LATIN SMALL LETTER O WITH GRAVE
ENCODING 242
SWIDTH 437 0
DWIDTH 7 0
BBX 6 9 1 0
BITMAP
60
30
00
78
CC
CC
CC
CC
78
ENDCHAR
STARTCHAR LATIN SMALL LETTER O WITH ACUTE
ENCODING 243
SWIDTH 437 0
DWIDTH 7 0
BBX 6 9 1 0
BITMAP
18
30
00
78
CC
CC
CC
CC
78
ENDCHAR
STARTCHAR LATIN SMALL LETTER O WITH CIRCUMFLEX
ENCODING 244
SWIDTH 437 0
DWIDTH 7 0
BBX 6 9 1 0
BITMAP
30
78
00
78
CC
CC
CC
CC
78
ENDCHAR
STARTCHAR LATIN SMALL LETTER O WITH TILDE
ENCODING 245
SWIDTH 437 0
DWIDTH 7 0
BBX 6 9 1 0
BITMAP
64
98
00
78
CC
CC
CC
CC
78
ENDCHAR
STARTCHAR LATIN SMALL LETTER O WITH DIAERESIS
ENCODING 246
SWIDTH 437 0
DWIDTH 7 0
BBX 6 8 1 0
BITMAP
48
00
78
CC
CC
CC
CC
78
ENDCHAR
STARTCHAR DIVISION SIGN
ENCODING 247
SWIDTH 437 0
DWIDTH 7 0
BBX 6 5 1 2
BITMAP
30
00
FC
00
30
ENDCHAR
STARTCHAR LATIN SMALL LETTER O WITH STROKE
ENCODING 248
SWIDTH 437 0
DWIDTH 7 0
BBX 6 6 1 0
BITMAP
7C
DC
FC
FC
EC
F8
ENDCHAR
STARTCHAR LATIN SMALL LETTER U WITH GRAVE
ENCODING 249
SWIDTH 437 0
DWIDTH 7 0
BBX 6 9 1 0
BITMAP
60
30
00
CC
CC
CC
CC
DC
74
ENDCHAR
STARTCHAR LATIN SMALL LETTER U WITH ACUTE
ENCODING 250
SWIDTH 437 0
DWIDTH 7 0
BBX 6 9 1 0
BITMAP
18
30
00
CC
CC
CC
CC
DC
74
ENDCHAR
STARTCHAR LATIN SMALL LETTER U WITH CIRCUMFLEX
ENCODING 251
SWIDTH 437 0
DWIDTH 7 0
BBX 6 9 1 0
BITMAP
30
78
00
CC
CC
CC
CC
DC
74
ENDCHAR
STARTCHAR LATIN SMALL LETTER U WITH DIAERESIS
ENCODING 252
SWIDTH 437 0
DWIDTH 7 0
BBX 6 8 1 0
BITMAP
48
00
CC
CC
CC
CC
DC
74
ENDCHAR
STARTCHAR LATIN SMALL LETTER Y WITH ACUTE
ENCODING 253
SWIDTH 437 0
DWIDTH 7 0
BBX 6 12 1 -3
BITMAP
18
30
00
CC
CC
CC
CC
DC
7C
0C
CC
78
ENDCHAR
STARTCHAR LATIN SMALL LETTER THORN
ENCODING 254
SWIDTH 437 0
DWIDTH 7 0
BBX 6 10 1 -2
BITMAP
C0
C0
F8
CC
CC
CC
CC
F8
C0
C0
ENDCHAR
STARTCHAR LATIN SMALL LETTER Y WITH DIAERESIS
ENCODING 255
SWIDTH 437 0
DWIDTH 7 0
BBX 6 11 1 -3
BITMAP
48
00
CC
CC
CC
CC
DC
7C
0C
CC
78
ENDCHAR
ENDFONT
